Coordinates
version=1
nRows=38
nColumns=12
inDegrees=yes

Units are S.I. units (second, meters, Newtons, ...)
Angles are in degrees

endheader
time	SC_y	SC_z	SC_x	AC_y	AC_z	AC_x	GH_y	GH_z	GH_yy	EL_x	PS_y
       0.0               -28.9          12.79          65.42          45.54           5.56          -1.64           75.4          33.49         -75.51          8.035          125.2
   0.02305               -28.9          12.79          65.41          45.54           5.56         -1.641           75.4           33.5         -75.51          8.036          125.2
    0.0461              -28.91          12.79          65.41          45.54           5.56         -1.642           75.4           33.5         -75.52          8.038          125.2
   0.06915              -28.91          12.79          65.41          45.55           5.56         -1.644           75.4          33.51         -75.52           8.04          125.2
    0.0922              -28.92          12.79           65.4          45.55           5.56         -1.645          75.39          33.52         -75.52          8.041          125.2
    0.1152              -28.92          12.79           65.4          45.55           5.56         -1.646          75.39          33.52         -75.52          8.043          125.2
    0.1383              -28.93          12.79           65.4          45.55          5.561         -1.648          75.39          33.53         -75.52          8.046          125.2
    0.1613              -28.93          12.79          65.39          45.56          5.561         -1.649          75.39          33.54         -75.53          8.048          125.2
    0.1844              -28.94          12.79          65.39          45.56          5.561         -1.651          75.39          33.55         -75.53           8.05          125.2
    0.2074              -28.94          12.79          65.38          45.56          5.561         -1.653          75.39          33.56         -75.53          8.053          125.2
    0.2305              -28.95          12.79          65.38          45.57          5.561         -1.655          75.38          33.57         -75.54          8.056          125.2
    0.2535              -28.95          12.79          65.37          45.57          5.561         -1.657          75.38          33.58         -75.54          8.059          125.2
    0.2766              -28.96          12.78          65.36          45.58          5.562         -1.659          75.38          33.59         -75.54          8.062          125.2
    0.2996              -28.97          12.78          65.36          45.58          5.562         -1.662          75.38          33.61         -75.55          8.065          125.2
    0.3227              -28.98          12.78          65.35          45.58          5.562         -1.664          75.37          33.62         -75.55          8.069          125.2
    0.3457              -28.99          12.78          65.34          45.59          5.562         -1.667          75.37          33.64         -75.56          8.073          125.2
    0.3688               -29.0          12.78          65.33           45.6          5.563         -1.671          75.37          33.65         -75.56          8.078          125.2
    0.3918              -29.01          12.78          65.32           45.6          5.563         -1.674          75.36          33.67         -75.57          8.083          125.2
    0.4149              -29.02          12.77          65.31          45.61          5.563         -1.678          75.36          33.69         -75.57          8.088          125.2
    0.4379              -29.03          12.77           65.3          45.62          5.564         -1.682          75.36          33.71         -75.58          8.094          125.3
     0.461              -29.05          12.77          65.29          45.62          5.564         -1.686          75.35          33.74         -75.59            8.1          125.3
     0.484              -29.06          12.77          65.27          45.63          5.565         -1.691          75.35          33.76          -75.6          8.107          125.3
    0.5071              -29.08          12.76          65.26          45.64          5.565         -1.697          75.34          33.79          -75.6          8.115          125.3
    0.5301               -29.1          12.76          65.24          45.66          5.566         -1.703          75.33          33.82         -75.61          8.124          125.3
    0.5532              -29.12          12.76          65.22          45.67          5.567          -1.71          75.33          33.86         -75.63          8.133          125.3
    0.5762              -29.14          12.75           65.2          45.68          5.567         -1.717          75.32           33.9         -75.64          8.144          125.3
    0.5993              -29.17          12.75          65.18           45.7          5.568         -1.726          75.31          33.94         -75.65          8.156          125.4
    0.6223               -29.2          12.74          65.15          45.71          5.569         -1.735           75.3          33.99         -75.67          8.169          125.4
    0.6454              -29.23          12.74          65.12          45.73           5.57         -1.746          75.29          34.05         -75.69          8.184          125.4
    0.6684              -29.27          12.73          65.09          45.76          5.571         -1.758          75.28          34.12          -75.7          8.202          125.4
    0.6915              -29.31          12.72          65.05          45.78          5.572         -1.772          75.26          34.19         -75.73          8.221          125.5
    0.7145              -29.36          12.71           65.0          45.81          5.574         -1.788          75.25          34.27         -75.75          8.244          125.5
    0.7376              -29.42           12.7          64.95          45.84          5.576         -1.806          75.23          34.37         -75.78           8.27          125.5
    0.7606              -29.49          12.69          64.89          45.88          5.578         -1.828          75.21          34.48         -75.82            8.3          125.6
    0.7837              -29.56          12.68          64.82          45.93           5.58         -1.853          75.18          34.62         -75.86          8.336          125.6
    0.8067              -29.66          12.66          64.74          45.98          5.583         -1.883          75.15          34.77         -75.91          8.378          125.7
    0.8298              -29.77          12.64          64.64          46.05          5.586         -1.918          75.11          34.96         -75.97          8.427          125.8
    0.8528               -29.9          12.62          64.52          46.13           5.59          -1.96          75.07          35.18         -76.03          8.487          125.9
